<svg xmlns="http://www.w3.org/2000/svg" viewBox="0 0 128 128" width="128" height="128">
  <defs>
    <!-- Background Gradient -->
    <radialGradient id="bgGrad" cx="50%" cy="50%" r="50%">
      <stop offset="0%" stop-color="#18120c" />
      <stop offset="100%" stop-color="#0b0805" />
    </radialGradient>

    <!-- Glowing Border Gradient -->
    <linearGradient id="borderGrad" x1="0%" y1="0%" x2="100%" y2="100%">
      <stop offset="0%" stop-color="#f59e0b" />
      <stop offset="50%" stop-color="#d97706" />
      <stop offset="100%" stop-color="#10b981" />
    </linearGradient>

    <!-- Inner Glow Gradient -->
    <radialGradient id="innerGlow" cx="50%" cy="50%" r="50%">
      <stop offset="70%" stop-color="#f59e0b" stop-opacity="0" />
      <stop offset="100%" stop-color="#f59e0b" stop-opacity="0.25" />
    </radialGradient>

    <!-- Symbol Glow Filter -->
    <filter id="glow" x="-20%" y="-20%" width="140%" height="140%">
      <feGaussianBlur stdDeviation="3" result="blur" />
      <feMerge>
        <feMergeNode in="blur" />
        <feMergeNode in="SourceGraphic" />
      </feMerge>
    </filter>

    <!-- Drop Shadow for Depth -->
    <filter id="shadow" x="-10%" y="-10%" width="120%" height="120%">
      <feDropShadow dx="0" dy="4" stdDeviation="6" flood-color="#000000" flood-opacity="0.6" />
    </filter>
  </defs>

  <!-- Hexagon Outer Shape with Shadow -->
  <g filter="url(#shadow)">
    <!-- Glowing Hexagon Border -->
    <polygon points="64,6 114,35 114,93 64,122 14,93 14,35" fill="url(#borderGrad)" />
    
    <!-- Dark Inner Hexagon Background -->
    <polygon points="64,9 111,36 111,92 64,119 17,92 17,36" fill="url(#bgGrad)" />

    <!-- Inner Hexagon Glow overlay -->
    <polygon points="64,9 111,36 111,92 64,119 17,92 17,36" fill="url(#innerGlow)" />
  </g>

  <!-- Glowing Central Symbol -->
  <g filter="url(#glow)">
    
        <!-- Master badge and laurels -->
        <g stroke="#10b981" stroke-width="3.5" fill="none" stroke-linecap="round" stroke-linejoin="round">
          <polygon points="64,26 84,40 84,88 64,102 44,88 44,40" fill="#d97706" fill-opacity="0.2" stroke-width="4.5" />
          <!-- Laurels -->
          <path d="M32,44 Q24,68 40,88" stroke="#f59e0b" stroke-width="3" />
          <path d="M96,44 Q104,68 88,88" stroke="#f59e0b" stroke-width="3" />
          <!-- Star of mastery -->
          <path d="M64,48 L67,56 L76,56 L69,61 L71,70 L64,64 L57,70 L59,61 L52,56 L61,56 Z" fill="#10b981" stroke="none" />
        </g>
      
  </g>

  <!-- Small geometric accent details -->
  <circle cx="64" cy="22" r="1.5" fill="#fff" opacity="0.8" />
  <circle cx="34" cy="98" r="1" fill="#10b981" opacity="0.4" />
  <circle cx="94" cy="98" r="1" fill="#f59e0b" opacity="0.4" />
</svg>
